HIERARCHY
ROOT Hips
{
	OFFSET -0.001795 -0.223333 0.028219
	CHANNELS 6 Xposition Yposition Zposition Zrotation Yrotation Xrotation 
	JOINT LeftUpLeg
	{
		OFFSET 0.069520 -0.091406 -0.006815
		CHANNELS 3 Zrotation Yrotation Xrotation
		JOINT LeftLeg
		{
			OFFSET 0.034277 -0.375199 -0.004496
			CHANNELS 3 Zrotation Yrotation Xrotation
			JOINT LeftFoot
			{
				OFFSET -0.013596 -0.397961 -0.043693
				CHANNELS 3 Zrotation Yrotation Xrotation
				JOINT LeftToe
				{
					OFFSET 0.026358 -0.055791 0.119288
					CHANNELS 3 Zrotation Yrotation Xrotation
					End Site
					{
						OFFSET 0.000000 0.000000 0.000000
					}
				}
			}
		}
	}
	JOINT RightUpLeg
	{
		OFFSET -0.067670 -0.090522 -0.004320
		CHANNELS 3 Zrotation Yrotation Xrotation
		JOINT RightLeg
		{
			OFFSET -0.038290 -0.382569 -0.008850
			CHANNELS 3 Zrotation Yrotation Xrotation
			JOINT RightFoot
			{
				OFFSET 0.015774 -0.398415 -0.042312
				CHANNELS 3 Zrotation Yrotation Xrotation
				JOINT RightToe
				{
					OFFSET -0.025372 -0.048144 0.123348
					CHANNELS 3 Zrotation Yrotation Xrotation
					End Site
					{
						OFFSET 0.000000 0.000000 0.000000
					}
				}
			}
		}
	}
	JOINT Spine
	{
		OFFSET -0.002533 0.108963 -0.026696
		CHANNELS 3 Zrotation Yrotation Xrotation
		JOINT Spine1
		{
			OFFSET 0.005487 0.135180 0.001092
			CHANNELS 3 Zrotation Yrotation Xrotation
			JOINT Spine2
			{
				OFFSET 0.001457 0.052922 0.025425
				CHANNELS 3 Zrotation Yrotation Xrotation
				JOINT Neck
				{
					OFFSET -0.002778 0.213870 -0.042857
					CHANNELS 3 Zrotation Yrotation Xrotation
					JOINT Head
					{
						OFFSET 0.005152 0.064970 0.051349
						CHANNELS 3 Zrotation Yrotation Xrotation
						End Site
						{
							OFFSET 0.000000 0.000000 0.000000
						}
					}
				}
				JOINT LeftShoulder
				{
					OFFSET 0.078845 0.121749 -0.034090
					CHANNELS 3 Zrotation Yrotation Xrotation
					JOINT LeftArm
					{
						OFFSET 0.090977 0.030469 -0.008868
						CHANNELS 3 Zrotation Yrotation Xrotation
						JOINT LeftForeArm
						{
							OFFSET 0.259612 -0.012772 -0.027456
							CHANNELS 3 Zrotation Yrotation Xrotation
							JOINT LeftHand
							{
								OFFSET 0.249234 0.008986 -0.001171
								CHANNELS 3 Zrotation Yrotation Xrotation
								End Site
								{
									OFFSET 0.000000 0.000000 0.000000
								}
							}
						}
					}
				}
				JOINT RightShoulder
				{
					OFFSET -0.081759 0.118833 -0.038615
					CHANNELS 3 Zrotation Yrotation Xrotation
					JOINT RightArm
					{
						OFFSET -0.096012 0.032551 -0.009143
						CHANNELS 3 Zrotation Yrotation Xrotation
						JOINT RightForeArm
						{
							OFFSET -0.253742 -0.013329 -0.021401
							CHANNELS 3 Zrotation Yrotation Xrotation
							JOINT RightHand
							{
								OFFSET -0.255298 0.007772 -0.005559
								CHANNELS 3 Zrotation Yrotation Xrotation
								End Site
								{
									OFFSET 0.000000 0.000000 0.000000
								}
							}
						}
					}
				}
			}
		}
	}
}
MOTION
Frames: 18
Frame Time: 0.050000
0.000000 0.941833 0.000000 0.364531 -17.832104 9.165239 1.673729 -0.746189 -11.915934 2.217884 -0.448938 4.720127 1.297837 3.908377 7.886460 0.000000 0.000000 0.000000 -4.460805 0.810394 -7.537029 -4.740965 0.274746 -1.053486 -3.991181 -15.394168 15.887720 0.000000 0.000000 0.000000 6.859701 -0.470022 2.719875 -4.590093 1.952446 -3.404742 2.167965 12.602993 2.814111 10.839634 -6.917288 -7.527022 0.000000 0.000000 0.000000 -13.223890 -4.621646 0.460309 -47.101230 -12.165823 -0.639006 -52.582547 -39.548352 21.325628 0.000000 0.000000 0.000000 12.441680 6.382022 2.272938 47.780124 27.837169 6.540987 0.803546 46.396583 2.405620 0.000000 0.000000 0.000000 
0.000624 0.941413 0.003290 -0.306116 -19.606551 10.151888 2.108308 -0.661018 -11.461515 2.202251 -0.403626 3.268183 2.165590 5.326804 7.889350 0.000000 0.000000 0.000000 -3.329831 0.855113 -8.242711 -6.088935 0.307872 -1.672646 -2.949072 -14.047386 15.903034 0.000000 0.000000 0.000000 7.275826 -0.419095 1.917317 -4.563916 1.845224 -4.520014 2.130821 14.245321 2.927471 12.171793 -8.124188 -6.436119 0.000000 0.000000 0.000000 -13.737887 -2.583219 -0.656572 -47.154090 -11.307135 -0.946147 -52.971325 -35.144196 18.786281 0.000000 0.000000 0.000000 11.817016 4.093299 1.290140 51.679404 24.186701 5.647308 2.326379 50.127488 3.517118 0.000000 0.000000 0.000000 
0.000881 0.940880 0.006145 0.246409 -18.975958 9.855691 1.554784 -0.717488 -11.170823 2.138325 -0.390338 3.102043 1.863024 4.810663 7.694263 0.000000 0.000000 0.000000 -3.524845 0.830191 -7.946943 -6.775485 0.391038 -1.385339 -3.361097 -14.581193 15.826996 0.000000 0.000000 0.000000 6.491786 -0.321321 1.215335 -3.758510 1.530508 -4.093646 1.389301 13.709778 1.984208 11.074346 -7.609541 -5.104174 0.000000 0.000000 0.000000 -14.510635 -1.913383 -1.087563 -46.707444 -9.304860 -1.622912 -52.118122 -34.176622 17.880345 0.000000 0.000000 0.000000 13.968033 1.480057 -0.067407 51.251225 19.120551 3.386180 8.734132 54.406452 7.071403 0.000000 0.000000 0.000000 
0.000793 0.939765 0.008833 0.352976 -19.070290 10.398287 2.156315 -0.660687 -11.257182 0.794951 -0.159705 2.454642 1.885394 4.820172 7.460052 0.000000 0.000000 0.000000 -3.768419 0.872158 -8.324775 -6.689899 0.367294 -1.547057 -3.418851 -14.618351 15.587512 0.000000 0.000000 0.000000 6.092332 -0.244500 0.440583 -3.505658 1.421057 -4.102932 1.261903 13.177470 2.006726 11.512834 -7.747189 -5.917715 0.000000 0.000000 0.000000 -14.299182 0.122612 -1.926712 -47.405125 -8.631301 -1.931349 -52.222325 -33.853572 17.876671 0.000000 0.000000 0.000000 13.861878 -1.807471 -1.789550 52.613345 14.405583 1.466873 18.482664 59.318055 13.272530 0.000000 0.000000 0.000000 
0.000582 0.939138 0.011152 0.547538 -18.213728 9.939495 1.950030 -0.687374 -11.126302 0.880102 -0.186765 3.051795 1.530763 4.184124 6.992604 0.000000 0.000000 0.000000 -3.878862 0.807291 -7.589674 -6.713463 0.385862 -1.453626 -3.914596 -15.238305 15.502465 0.000000 0.000000 0.000000 5.980644 -0.164109 -0.285079 -3.402048 1.428735 -3.342992 0.980701 11.625617 1.645319 11.098831 -7.539352 -5.568978 0.000000 0.000000 0.000000 -14.185149 0.791833 -2.066391 -48.224408 -7.882850 -2.261408 -50.567599 -33.726266 17.396749 0.000000 0.000000 0.000000 14.045130 -4.227990 -3.166092 53.483815 9.338424 -0.699074 28.134763 62.961492 19.983931 0.000000 0.000000 0.000000 
0.000284 0.938806 0.012852 0.522510 -17.470236 9.987489 2.244482 -0.673743 -11.297013 0.517310 -0.133338 3.290024 1.207270 3.606335 6.738590 0.000000 0.000000 0.000000 -3.875052 0.761401 -7.048739 -6.530396 0.327430 -1.998043 -4.279424 -15.745901 15.689133 0.000000 0.000000 0.000000 5.863812 -0.102008 -0.906402 -3.049280 1.298332 -3.012562 0.502062 11.224574 1.530450 11.030950 -7.655646 -4.825593 0.000000 0.000000 0.000000 -14.469871 1.480721 -2.459950 -48.244545 -7.836523 -2.269201 -51.769112 -33.560669 17.709804 0.000000 0.000000 0.000000 13.895317 -6.109860 -4.041091 53.914721 4.994564 -2.611007 40.574684 65.710612 29.589795 0.000000 0.000000 0.000000 
-0.000051 0.938713 0.013911 0.614205 -16.641631 9.638346 2.173415 -0.683271 -11.079981 0.612725 -0.155174 3.455114 0.839479 2.958314 6.561502 0.000000 0.000000 0.000000 -3.707906 0.700715 -6.409448 -6.790294 0.350280 -2.041865 -4.692956 -16.309448 15.847368 0.000000 0.000000 0.000000 5.958892 -0.059209 -1.309636 -3.149669 1.373281 -2.544176 0.150956 10.706132 1.180052 10.916395 -7.427101 -5.392870 0.000000 0.000000 0.000000 -13.893574 1.686086 -2.491594 -48.201452 -7.799525 -2.260992 -53.578313 -33.814618 18.486232 0.000000 0.000000 0.000000 13.103361 -7.683413 -4.670729 54.407152 2.261499 -3.804558 51.130041 66.798712 37.844073 0.000000 0.000000 0.000000 
-0.000339 0.939076 0.014287 0.703374 -16.070986 9.291402 2.126874 -0.684064 -10.852435 0.639212 -0.164005 3.579206 0.559945 2.488189 6.596251 0.000000 0.000000 0.000000 -3.336719 0.643229 -5.881655 -7.448427 0.402176 -2.078989 -4.930216 -16.665406 16.136938 0.000000 0.000000 0.000000 6.008736 -0.032714 -1.524460 -3.172370 1.400551 -2.282198 -0.351309 10.592778 1.073077 10.854643 -7.483836 -4.925553 0.000000 0.000000 0.000000 -13.676025 1.902340 -2.616265 -47.287585 -8.163486 -2.073079 -57.271443 -34.882627 20.460857 0.000000 0.000000 0.000000 12.636355 -8.310492 -4.846690 54.129623 0.983227 -4.333294 61.375498 67.799701 46.601577 0.000000 0.000000 0.000000 
-0.000801 0.939210 0.013854 0.812852 -15.627182 9.069890 2.111216 -0.679211 -10.593461 0.601537 -0.155463 3.342646 0.329922 2.109553 6.675532 0.000000 0.000000 0.000000 -3.007399 0.589263 -5.369261 -8.067930 0.413475 -2.478053 -5.106411 -16.929891 16.400682 0.000000 0.000000 0.000000 5.962179 0.001658 -1.828459 -3.360765 1.507422 -1.928178 -0.751680 10.508761 0.778952 10.417670 -7.261608 -4.418106 0.000000 0.000000 0.000000 -13.250848 1.676375 -2.497004 -46.136931 -8.541341 -1.858610 -62.273562 -37.820538 24.413849 0.000000 0.000000 0.000000 12.406108 -8.353181 -4.795762 52.823317 1.147249 -4.131044 72.371351 68.230886 56.134342 0.000000 0.000000 0.000000 
-0.001467 0.939484 0.012578 1.017286 -15.331670 8.828027 2.057938 -0.680626 -10.435297 0.476475 -0.134172 3.218294 0.146971 1.835827 6.873493 0.000000 0.000000 0.000000 -2.867586 0.547587 -4.926760 -8.518694 0.406262 -2.905685 -5.221781 -17.102983 16.614492 0.000000 0.000000 0.000000 5.767188 0.008976 -1.867617 -3.516732 1.586800 -1.796699 -1.299997 10.939900 0.439494 10.698075 -7.498876 -4.206891 0.000000 0.000000 0.000000 -12.381840 1.544602 -2.422221 -44.779699 -9.348902 -1.484121 -68.802617 -40.170641 28.978493 0.000000 0.000000 0.000000 12.486640 -8.239756 -4.661488 51.453311 2.200960 -3.562828 82.958831 69.007866 66.621136 0.000000 0.000000 0.000000 
-0.002183 0.939979 0.010356 0.955936 -15.128022 8.773047 2.213677 -0.667679 -10.413918 0.500584 -0.135285 3.031474 0.017548 1.666456 7.123002 0.000000 0.000000 0.000000 -2.539090 0.532746 -4.904617 -8.788295 0.421423 -2.969221 -5.272801 -17.198905 16.808493 0.000000 0.000000 0.000000 5.544709 0.020487 -1.969781 -3.539463 1.581673 -2.063594 -1.449318 11.487033 0.551436 10.500775 -7.292419 -4.422279 0.000000 0.000000 0.000000 -11.207496 0.857176 -2.021475 -43.429922 -10.404419 -1.085980 -76.162102 -42.855910 34.924138 0.000000 0.000000 0.000000 12.094763 -7.663797 -4.245008 50.250177 4.142561 -2.717228 91.021898 69.790886 75.475588 0.000000 0.000000 0.000000 
-0.002727 0.940568 0.007574 0.864040 -14.673355 8.805895 2.152523 -0.678430 -10.406349 1.002411 -0.205046 2.583199 -0.217982 1.333969 7.424588 0.000000 0.000000 0.000000 -2.229107 0.511192 -4.786841 -8.914066 0.395008 -3.334920 -5.426835 -17.447467 17.170605 0.000000 0.000000 0.000000 5.508765 0.043412 -2.216580 -3.735001 1.696418 -1.653256 -1.885229 11.929228 -0.083581 10.756751 -7.513668 -4.155788 0.000000 0.000000 0.000000 -9.737712 0.388018 -1.698892 -41.855950 -11.837482 -0.530259 -82.007613 -43.778725 38.852169 0.000000 0.000000 0.000000 11.927958 -6.866619 -3.749136 48.934096 6.786035 -1.583836 93.360163 70.865417 79.390562 0.000000 0.000000 0.000000 
-0.003057 0.941096 0.004904 0.855877 -14.502191 8.808824 2.216852 -0.679344 -10.500872 1.051756 -0.208105 2.402948 -0.340399 1.192963 7.723026 0.000000 0.000000 0.000000 -2.027315 0.506907 -4.822901 -9.103875 0.390537 -3.509447 -5.459842 -17.521544 17.399670 0.000000 0.000000 0.000000 5.254728 0.021427 -1.992670 -3.981172 1.783231 -2.076873 -1.854212 12.837047 -0.140347 11.596988 -8.176625 -4.000456 0.000000 0.000000 0.000000 -8.558351 -0.631356 -1.193721 -39.548567 -12.394149 -0.325028 -87.438140 -43.769417 41.872711 0.000000 0.000000 0.000000 11.563924 -6.072891 -3.213651 47.069766 9.879123 -0.405834 90.503602 72.028309 78.392354 0.000000 0.000000 0.000000 
-0.003169 0.941287 0.003104 0.838462 -14.112683 8.907132 2.234126 -0.683894 -10.523522 1.185256 -0.215501 1.954039 -0.547961 0.892987 7.915626 0.000000 0.000000 0.000000 -1.955915 0.490301 -4.655351 -9.048986 0.330667 -4.049426 -5.611790 -17.746255 17.679229 0.000000 0.000000 0.000000 5.233517 0.019321 -1.995597 -4.126481 1.834526 -2.342023 -2.205477 13.599785 -0.362168 11.934387 -8.435455 -3.924852 0.000000 0.000000 0.000000 -7.457598 -0.886131 -1.013018 -37.365120 -12.571227 -0.243265 -90.494069 -41.964633 41.441126 0.000000 0.000000 0.000000 10.793003 -5.518742 -2.759949 45.593274 11.868928 0.300168 87.855223 72.909235 77.355193 0.000000 0.000000 0.000000 
-0.003092 0.941367 0.002367 0.776688 -14.051962 8.719362 2.214289 -0.667399 -10.149521 1.350971 -0.228131 1.587617 -0.590375 0.832087 7.963308 0.000000 0.000000 0.000000 -1.877172 0.482354 -4.602159 -9.040475 0.356479 -3.814870 -5.640141 -17.776566 17.646783 0.000000 0.000000 0.000000 5.259739 -0.011741 -1.643516 -4.254797 1.887196 -2.442435 -2.377340 14.373911 -0.627015 12.663365 -9.286188 -2.928362 0.000000 0.000000 0.000000 -6.479211 -1.051749 -0.852260 -35.246143 -11.530080 -0.487819 -92.086553 -39.396082 39.199817 0.000000 0.000000 0.000000 10.454760 -5.064294 -2.429607 43.685649 13.928151 0.944272 84.527542 73.485012 75.177621 0.000000 0.000000 0.000000 
-0.002915 0.941207 0.002453 0.722554 -14.098540 8.835522 2.229550 -0.668758 -10.206002 1.400953 -0.232604 1.508033 -0.554726 0.879604 7.915273 0.000000 0.000000 0.000000 -2.037290 0.486209 -4.574938 -8.687274 0.304078 -4.078140 -5.616858 -17.738176 17.615906 0.000000 0.000000 0.000000 5.250637 -0.014601 -1.630049 -4.252095 1.844976 -3.117941 -2.323042 15.135922 -0.234425 13.031281 -9.450730 -3.380132 0.000000 0.000000 0.000000 -5.692691 -0.836701 -0.836019 -33.830757 -9.972089 -0.879991 -91.205223 -35.946312 34.545828 0.000000 0.000000 0.000000 9.925808 -5.156724 -2.361847 42.342447 15.298172 1.289541 81.208672 73.504244 72.433065 0.000000 0.000000 0.000000 
-0.002713 0.940965 0.003034 0.653571 -14.260368 8.951180 2.245606 -0.654589 -9.964880 1.441788 -0.220913 0.997530 -0.478136 0.997325 7.895804 0.000000 0.000000 0.000000 -2.047603 0.492999 -4.645439 -8.617549 0.291117 -4.148003 -5.536949 -17.629668 17.546118 0.000000 0.000000 0.000000 5.244528 0.002478 -1.815548 -4.351577 1.864129 -3.516965 -1.895695 15.254840 0.395128 13.277249 -9.672186 -3.376611 0.000000 0.000000 0.000000 -5.238559 -0.109028 -1.005771 -33.247354 -7.820691 -1.438754 -88.974794 -31.286886 28.472764 0.000000 0.000000 0.000000 9.192643 -5.019645 -2.265714 41.437718 16.803853 1.706761 77.995072 74.074536 69.955449 0.000000 0.000000 0.000000 
-0.002552 0.940629 0.003744 0.702329 -14.423856 9.097599 2.269650 -0.656394 -10.063839 1.249625 -0.194047 0.984851 -0.391285 1.120750 7.812249 0.000000 0.000000 0.000000 -2.207677 0.518913 -4.878485 -8.509032 0.295528 -4.017714 -5.497398 -17.564407 17.379207 0.000000 0.000000 0.000000 5.084257 0.026477 -2.070503 -4.347610 1.852174 -3.660998 -1.672843 15.537448 0.609327 13.373783 -9.664084 -3.665690 0.000000 0.000000 0.000000 -4.691472 0.230854 -1.028366 -32.567396 -5.339698 -2.021375 -87.313081 -27.964006 24.244714 0.000000 0.000000 0.000000 8.651987 -5.281310 -2.343847 40.133550 18.042898 1.998535 75.516711 73.920414 67.553650 0.000000 0.000000 0.000000 
